<?xml version="1.0" encoding="UTF-8"?><svg id="Vrstva_1" xmlns="http://www.w3.org/2000/svg" viewBox="0 0 867.27 267.83"><defs><style>.cls-1,.cls-2{fill:#bc81b6;}.cls-2{opacity:.21;}</style></defs><g><path class="cls-1" d="M337.92,130.54c.07,3.33,1.09,5.97,3.06,7.91,1.97,1.95,4.62,2.92,7.94,2.92,3.55,0,6.26-1.04,8.11-3.12,1.85-2.08,2.78-5.14,2.78-9.18v-56.33h17.13v56.44c0,4.42-.63,8.34-1.9,11.74s-3.09,6.28-5.47,8.62c-2.38,2.35-5.3,4.13-8.73,5.34-3.44,1.21-7.34,1.82-11.69,1.82s-8.01-.61-11.43-1.82-6.34-2.95-8.76-5.22c-2.42-2.27-4.3-5.02-5.62-8.26-1.33-3.23-1.99-6.85-1.99-10.86h16.57Z"/><path class="cls-1" d="M450.97,136.78c-.64,2.95-1.76,5.6-3.37,7.97-1.61,2.36-3.65,4.38-6.1,6.04-2.46,1.66-5.3,2.94-8.54,3.83s-6.76,1.33-10.58,1.33c-4.77,0-9.02-.73-12.76-2.18-3.74-1.46-6.92-3.58-9.53-6.36-2.61-2.78-4.59-6.17-5.96-10.18-1.36-4-2.04-8.54-2.04-13.61s.69-9.69,2.07-13.76c1.38-4.06,3.37-7.52,5.98-10.35,2.61-2.84,5.77-5.02,9.47-6.55s7.88-2.3,12.54-2.3,8.73,.72,12.37,2.15c3.63,1.44,6.7,3.51,9.22,6.21s4.44,6.01,5.76,9.93c1.32,3.92,1.98,8.35,1.98,13.3v5.05h-42.94v.85c.04,2.35,.41,4.45,1.1,6.3,.7,1.85,1.67,3.43,2.89,4.74s2.72,2.31,4.46,3c1.74,.71,3.68,1.05,5.84,1.05,3.29,0,6.02-.56,8.2-1.68,2.18-1.11,3.7-2.7,4.57-4.79h15.37Zm-28.76-33.47c-1.93,0-3.69,.32-5.28,.97s-2.98,1.55-4.17,2.72-2.15,2.58-2.87,4.23-1.15,3.49-1.3,5.53h26.66c-.19-4.16-1.44-7.44-3.74-9.84-2.31-2.4-5.41-3.6-9.3-3.6Z"/><path class="cls-1" d="M465.56,68.14h16.51v86.45h-16.51V68.14Z"/><path class="cls-1" d="M512.8,61.9h17.53l-16.28,20.02h-15.26l14.01-20.02Zm-13.5,30.12h16.51v62.57h-16.51v-62.57Z"/><path class="cls-1" d="M532.49,92.02h16v10.04h1.02c1.44-3.55,3.72-6.34,6.83-8.36,3.12-2.03,7.01-3.03,11.66-3.03,6.96,0,12.26,2.04,15.91,6.12,3.65,4.09,5.47,9.87,5.47,17.36v40.45h-16.51v-36.53c0-4.35-.93-7.63-2.8-9.84-1.87-2.21-4.78-3.32-8.71-3.32-1.93,0-3.65,.32-5.17,.96-1.51,.64-2.8,1.56-3.88,2.75s-1.9,2.63-2.47,4.31-.85,3.54-.85,5.59v36.08h-16.51v-62.57Z"/><path class="cls-1" d="M644.4,92.02h18.77l-23.82,26.83,25.47,35.74h-19.57l-18.26-25.41-4.53,4.65v20.76h-16.51V68.14h16.51v48.33h1.02l20.93-24.45Z"/><path class="cls-1" d="M703,155.95c-4.8,0-9.11-.74-12.93-2.21-3.82-1.47-7.06-3.62-9.7-6.43-2.65-2.82-4.67-6.25-6.07-10.3-1.4-4.05-2.1-8.63-2.1-13.73s.71-9.61,2.13-13.64c1.42-4.03,3.46-7.45,6.12-10.27,2.67-2.82,5.9-4.97,9.7-6.46,3.8-1.5,8.09-2.24,12.85-2.24s9.05,.74,12.85,2.24c3.8,1.49,7.04,3.65,9.7,6.46,2.67,2.82,4.7,6.24,6.12,10.27,1.42,4.03,2.13,8.57,2.13,13.64s-.7,9.68-2.1,13.73c-1.4,4.04-3.42,7.47-6.07,10.3-2.65,2.82-5.89,4.96-9.7,6.43-3.82,1.48-8.13,2.21-12.93,2.21Zm0-13.5c4.42,0,7.84-1.67,10.24-5.02,2.4-3.35,3.61-8.06,3.61-14.16,0-2.99-.31-5.67-.94-8.05-.62-2.38-1.53-4.39-2.72-6.01-1.2-1.62-2.64-2.87-4.34-3.74-1.7-.87-3.65-1.3-5.84-1.3s-4.15,.43-5.87,1.3c-1.72,.87-3.17,2.12-4.34,3.74-1.18,1.63-2.07,3.63-2.69,6.01-.63,2.38-.94,5.07-.94,8.05,0,6.13,1.2,10.86,3.57,14.18,2.38,3.33,5.81,4.99,10.27,4.99Z"/><path class="cls-1" d="M759.61,92.02l12.93,46.63h1.02l12.82-46.63h17.42l-21.61,62.57h-18.6l-21.73-62.57h17.76Z"/><path class="cls-1" d="M832.1,155.55c-3.02,0-5.79-.44-8.28-1.33s-4.65-2.16-6.47-3.8c-1.81-1.65-3.22-3.63-4.22-5.93-1.01-2.31-1.51-4.9-1.51-7.77,0-5.71,2.08-10.16,6.25-13.36,4.15-3.2,10.15-5.02,17.98-5.47l15.15-.91v-5.11c0-2.61-.9-4.62-2.7-6.04s-4.42-2.13-7.85-2.13c-2.99,0-5.45,.49-7.38,1.47-1.93,.99-3.23,2.42-3.91,4.31h-15.21c.27-2.87,1.11-5.47,2.53-7.8s3.32-4.31,5.7-5.95c2.38-1.65,5.19-2.9,8.42-3.77s6.81-1.3,10.75-1.3,7.8,.48,11.03,1.44c3.23,.97,5.94,2.35,8.14,4.17,2.19,1.82,3.86,4.04,5.02,6.66,1.16,2.63,1.73,5.61,1.73,8.94v42.72h-16v-8.17h-1.02c-1.63,2.87-4.04,5.11-7.23,6.72-3.2,1.61-6.84,2.41-10.92,2.41Zm5.45-12.42c1.93,0,3.7-.29,5.33-.86s3.04-1.36,4.25-2.38c1.21-1.02,2.16-2.21,2.84-3.57,.69-1.37,1.03-2.84,1.03-4.43v-4.59l-12.65,.79c-7.03,.49-10.55,3-10.55,7.54,0,2.35,.91,4.18,2.72,5.51,1.82,1.32,4.16,1.99,7.04,1.99Zm9.01-81.23h17.53l-16.29,20.02h-15.25l14.01-20.02Z"/></g><g><path class="cls-1" d="M725.57,207.28v-21.65h3.22v3.43h.2c.84-2.51,2.78-3.77,5.83-3.77,.81,0,1.55,.1,2.23,.31s1.26,.5,1.76,.86c.5,.37,.92,.8,1.27,1.28s.61,1.02,.76,1.59h.17c.5-1.18,1.29-2.16,2.4-2.91s2.5-1.14,4.17-1.14c2.26,0,4.02,.59,5.28,1.75,1.26,1.18,1.89,2.84,1.89,4.99v15.25h-3.24v-14.47c0-1.41-.4-2.55-1.2-3.4-.8-.86-1.96-1.29-3.48-1.29s-2.66,.5-3.62,1.49c-.95,.99-1.44,2.23-1.44,3.72v13.95h-3.22v-14.26c0-1.45-.43-2.63-1.31-3.54-.87-.91-2.05-1.37-3.54-1.37s-2.61,.49-3.54,1.47-1.4,2.21-1.4,3.7v13.99h-3.22Z"/><path class="cls-1" d="M768.06,207.64c-1.03,0-1.98-.16-2.86-.49s-1.63-.78-2.23-1.35-1.08-1.27-1.44-2.09c-.35-.83-.53-1.74-.53-2.74,0-1.25,.28-2.35,.85-3.29,.57-.93,1.43-1.67,2.59-2.21s2.53-.8,4.14-.8h5.79v-2.22c0-1.44-.42-2.51-1.26-3.2-.84-.69-2.02-1.04-3.55-1.04-2.5,0-4.03,.86-4.59,2.59h-3.14c.18-1.82,.96-3.19,2.34-4.12,1.38-.93,3.23-1.4,5.54-1.4s4.24,.58,5.72,1.74c1.48,1.15,2.21,2.95,2.21,5.38v14.87h-3.16v-2.91h-.12c-1.37,2.18-3.46,3.27-6.3,3.27Zm.82-2.8c1.55,0,2.85-.47,3.91-1.42,1.05-.94,1.58-2.12,1.58-3.54v-2.51h-5.72c-1.48,0-2.57,.33-3.26,.99-.69,.65-1.04,1.52-1.04,2.59,0,1.26,.44,2.23,1.33,2.89,.88,.67,1.95,1.01,3.2,1.01Z"/><path class="cls-1" d="M784.02,191.79c0-2.13,.76-3.75,2.27-4.85s3.38-1.65,5.61-1.65c1.12,0,2.16,.16,3.11,.46s1.74,.72,2.4,1.24c.65,.52,1.16,1.15,1.52,1.88s.53,1.54,.53,2.4h-3.03c-.05-.55-.24-1.07-.57-1.55-.33-.49-.85-.9-1.57-1.24-.73-.35-1.57-.52-2.54-.52-.89,0-1.69,.14-2.36,.4-.69,.26-1.22,.67-1.62,1.2s-.59,1.16-.59,1.87c0,.5,.1,.94,.31,1.31,.21,.37,.45,.65,.71,.86,.27,.21,.65,.41,1.16,.59,.52,.19,.93,.31,1.26,.38,.33,.06,.81,.16,1.44,.28,.05,0,.1,.01,.14,.02,.05,.01,.09,.02,.14,.02s.1,.02,.15,.06c.76,.12,1.42,.25,1.97,.39s1.14,.3,1.76,.51c.62,.21,1.14,.46,1.55,.75s.81,.63,1.18,1.04,.65,.89,.82,1.44,.25,1.17,.25,1.86c0,2.1-.78,3.74-2.33,4.92-1.55,1.19-3.6,1.78-6.15,1.78-2.36,0-4.27-.52-5.73-1.56-1.46-1.05-2.18-2.51-2.18-4.4h3.18c.31,2.16,1.94,3.24,4.89,3.24,1.16,0,2.14-.17,2.92-.5,.79-.33,1.36-.74,1.7-1.25,.34-.52,.51-1.12,.51-1.83,0-.48-.1-.9-.29-1.27s-.43-.67-.71-.89c-.27-.22-.69-.43-1.23-.63-.55-.21-1.03-.35-1.44-.44s-.99-.22-1.75-.38c-1-.2-1.78-.37-2.36-.52-.58-.14-1.24-.37-1.97-.69-.73-.32-1.29-.67-1.67-1.06-.39-.38-.71-.88-.97-1.49-.26-.61-.39-1.35-.39-2.19Z"/><path class="cls-1" d="M812.09,207.64c-1.03,0-1.98-.16-2.86-.49s-1.63-.78-2.23-1.35-1.08-1.27-1.44-2.09c-.35-.83-.53-1.74-.53-2.74,0-1.25,.28-2.35,.85-3.29,.57-.93,1.43-1.67,2.59-2.21s2.53-.8,4.14-.8h5.79v-2.22c0-1.44-.42-2.51-1.26-3.2-.84-.69-2.02-1.04-3.55-1.04-2.5,0-4.03,.86-4.59,2.59h-3.14c.18-1.82,.96-3.19,2.34-4.12,1.38-.93,3.23-1.4,5.54-1.4s4.24,.58,5.72,1.74c1.48,1.15,2.21,2.95,2.21,5.38v14.87h-3.16v-2.91h-.12c-1.37,2.18-3.46,3.27-6.3,3.27Zm.82-2.8c1.55,0,2.85-.47,3.91-1.42,1.05-.94,1.58-2.12,1.58-3.54v-2.51h-5.72c-1.48,0-2.57,.33-3.26,.99-.69,.65-1.04,1.52-1.04,2.59,0,1.26,.44,2.23,1.33,2.89,.88,.67,1.95,1.01,3.2,1.01Zm.43-22.79l4.95-7.29h3.29l-5.76,7.29h-2.48Z"/><path class="cls-1" d="M827.88,207.28v-2.33l11.76-16.23v-.21h-11.84v-2.88h15.89v2.3l-11.78,16.28v.16h11.86v2.91h-15.89Zm1.78-32.4h2.87l3.28,5.64h.04l3.14-5.64h2.8l-4.93,7.88h-2.04l-5.17-7.88Z"/><path class="cls-1" d="M857.99,207.64c-2.83,0-5.04-.85-6.64-2.55-1.61-1.69-2.41-3.99-2.41-6.88v-3.51c0-2.84,.82-5.11,2.46-6.84,1.65-1.71,3.76-2.57,6.34-2.57s4.7,.86,6.35,2.57c1.64,1.72,2.46,4,2.46,6.84v2.65h-14.35v1.1c0,1.84,.51,3.34,1.52,4.53,1.02,1.19,2.44,1.78,4.27,1.78,1.26,0,2.32-.25,3.17-.76,.85-.51,1.4-1.13,1.63-1.85h3.43c-.1,.61-.34,1.22-.72,1.82-.38,.61-.89,1.2-1.54,1.76-.64,.57-1.48,1.03-2.53,1.38-1.04,.35-2.19,.53-3.46,.53Zm-5.79-12.78h11.08v-.38c0-1.26-.23-2.37-.69-3.33-.46-.95-1.11-1.7-1.95-2.21-.84-.51-1.81-.76-2.91-.76-1.66,0-2.99,.57-4.01,1.72-1.01,1.14-1.52,2.67-1.52,4.59v.38Z"/></g><path class="cls-1" d="M262.76,123.36c-.11-1.82-.26-3.64-.44-5.46-1.11-10.57-3.48-20.97-7.06-30.9-11.91-33.05-35.98-59.49-67.78-74.43C155.69-2.38,119.99-4.05,86.92,7.85,47.06,22.22,16.4,55.28,4.91,96.28c-.45,1.6-.88,3.2-1.27,4.82-6,24.97-4.56,50.94,4.14,75.08,18.74,52,68.52,86.94,123.87,86.94,15.15,0,30.11-2.62,44.47-7.8,54.63-19.69,90.26-73.96,86.65-131.97ZM89.4,14.71c13.67-4.93,27.87-7.42,42.2-7.42,18.26,0,36.02,3.99,52.78,11.87,30.03,14.12,52.76,39.09,64.01,70.31,3.58,9.93,5.88,20.3,6.84,30.85-4.07,2.67-8.14,5.5-11.98,8.18-18.66,13.03-39.74,27.76-65.77,30.57,.09-.31,.15-.63,.2-.94,.96-5.91-2.12-8.44-6.24-11.14-4.28-2.79-11.11-3.78-16.11-3.78-1.78,0-3.31,.12-4.42,.33-7.45,1.4-9.27,6.01-9.69,8.62-.13,.77-.17,1.55-.13,2.34-4.13-1.4-8.55-3.08-13.42-5.12,1.1-.99,1.99-2.21,2.61-3.59,2.46-5.46,.14-8.7-3.15-12.37-4.61-5.14-14.63-8.3-18.94-8.63-7.52-.6-10.52,3.4-11.61,5.83-.55,1.22-.87,2.51-.95,3.82-2.42-1.2-4.88-2.42-7.36-3.66,1.36-1.07,2.46-2.48,3.2-4.11,2.46-5.46,.14-8.7-3.15-12.37-4.6-5.14-14.63-8.31-18.95-8.64-7.23-.5-10.27,2.88-11.61,5.83-.53,1.17-.85,2.42-.94,3.67-1.4-.68-2.8-1.36-4.2-2.03,.98-.95,1.78-2.09,2.35-3.35,2.46-5.46,.14-8.7-3.15-12.37-4.61-5.14-14.63-8.3-18.94-8.63-7.22-.48-10.27,2.88-11.6,5.83-.67,1.49-1,3.09-.95,4.69-2.79-.92-5.47-1.74-8.01-2.43C23.45,58.79,52.18,28.13,89.4,14.71Zm81.09,142.25c-.14,.87-.56,1.65-1.17,2.15-.33,.27-.86,.55-1.45,.47l-17.84-2.91c-.46-.08-.89-.4-1.2-.9-.42-.67-.56-1.53-.42-2.41,.09-.59,.33-1.98,3.85-2.64,.68-.13,1.7-.2,2.87-.2,4.16,0,9.73,.89,12.33,2.59,3.31,2.16,3.29,2.28,3.03,3.85Zm-46.86-14.13c-.36,.81-.96,1.44-1.68,1.77-.54,.25-1.07,.28-1.5,.09l-16.5-7.43c-.46-.2-.8-.67-.95-1.3-.19-.72-.1-1.57,.24-2.32h0c.23-.52,.71-1.59,3.49-1.59,.28,0,.59,.01,.91,.04,3.11,.23,11.2,3.03,14.07,6.23,2.64,2.94,2.58,3.06,1.93,4.51Zm-38.8-19.13c-.36,.8-.97,1.44-1.69,1.77-.53,.25-1.07,.28-1.5,.09l-16.5-7.43c-.46-.2-.8-.67-.95-1.3-.19-.72-.1-1.57,.24-2.32,.23-.52,.71-1.59,3.49-1.59,.28,0,.59,.01,.91,.04,3.11,.23,11.2,3.03,14.07,6.23,2.64,2.94,2.58,3.06,1.93,4.51Zm-36.5-16.88c-.36,.8-.97,1.44-1.68,1.77-.54,.25-1.08,.29-1.5,.09l-16.51-7.43c-1.03-.47-1.37-2.16-.71-3.62,.23-.52,.71-1.59,3.48-1.59,.28,0,.59,.01,.92,.04,3.11,.23,11.19,3.03,14.07,6.23,2.64,2.94,2.58,3.06,1.93,4.51Zm120.56,138.65c-15.17,10.77-35.97,7.89-36.84,7.75l-.54-.08-.53,.08c-.88,.13-21.67,3.01-36.84-7.75-11.25-7.98-16.48-21.59-18.47-28.28,6.95-.33,21.54,.11,32.79,8.09,1.74,1.24,3.45,2.69,5.06,4.33l8.23,8.35-2.05-11.55c-.4-2.28-.61-4.52-.61-6.65,0-13.8,8.08-25.95,12.38-31.44,4.3,5.47,12.37,17.59,12.37,31.44,0,2.16-.21,4.43-.62,6.73l-2.08,11.64,8.27-8.44c1.63-1.66,3.36-3.14,5.14-4.41,11.25-7.99,25.82-8.44,32.8-8.09-1.97,6.68-7.19,20.27-18.48,28.28Zm10.31,.74c12.69-12.88,16.18-30.75,16.35-31.61l.7-3.71-3.74-.57c-.98-.15-23.78-3.44-41.37,8.47-.48-21.23-16.35-37.92-17.03-38.63l-2.63-2.72-2.63,2.72c-.68,.71-16.53,17.37-17.03,38.58-17.59-11.85-40.32-8.56-41.3-8.42l-3.74,.57,.7,3.71c.16,.86,3.66,18.76,16.37,31.64-1.73-.72-3.46-1.47-5.17-2.28-30.06-14.13-52.81-39.09-64.04-70.25-8.08-22.42-9.52-46.49-4.19-69.71,8.17,2.2,16.28,5.13,24.13,8.72,15.59,7.14,30.19,14.46,44.34,21.55,32.83,16.45,61.19,30.66,82.61,32.33,1.96,.15,3.87,.2,5.81,.23,.27,.03,.53,.05,.96,.03h.41c32.34,.01,56.99-17.2,78.73-32.39,2.83-1.98,5.59-3.91,8.29-5.74,1.17,51.57-29.19,97.83-76.53,117.48Z"/><circle class="cls-2" cx="148.36" cy="138.43" r="129.4"/></svg>