<?xml version="1.0" encoding="utf-8"?>
<!-- Generator: Adobe Illustrator 26.3.1, SVG Export Plug-In . SVG Version: 6.00 Build 0)  -->
<svg version="1.1" id="Vrstva_1" xmlns="http://www.w3.org/2000/svg" xmlns:xlink="http://www.w3.org/1999/xlink" x="0px" y="0px"
	 viewBox="0 0 1227.7 382.4" style="enable-background:new 0 0 1227.7 382.4;" xml:space="preserve">
<style type="text/css">
	.st0{fill:#f5ebf4;}
	.st1{fill:#9f6599;}
	.st2{fill:#bc81b6;}
</style>
<g>
	<g>
		<g>
			<path class="st1" d="M545.6,62.4c5,0,10.3,0.9,15.7,2.8c5.4,1.9,10.2,4.2,14.3,7.2c-1.3,6.8-2.6,12.9-3.7,18.3c-1.1,5.4-2.2,10.4-3.1,14.8
				c-0.9,4.4-1.8,8.5-2.7,12.1c-0.9,3.6-1.7,7.1-2.5,10.2c-3.2,11.9-6.5,22.7-9.8,32.3c-3.4,9.6-7,18.3-10.7,26
				c-3.8,7.7-7.8,14.5-11.9,20.5c-4.2,6-8.7,11.2-13.4,15.7c-4.6,4.4-9.3,8-13.9,10.7c-4.6,2.8-8.9,4.6-12.9,5.4
				c-5.3,0-10.2-0.6-14.7-1.8c-4.5-1.2-8.4-2.8-11.6-4.9c-3.3-2.1-5.8-4.5-7.6-7.4c-1.8-2.9-2.7-6-2.7-9.4c0-3.7,0.9-8.4,2.8-14
				c1.9-5.6,4.7-12.3,8.6-20c1.6,0.1,3.4,0.5,5.6,1.2c2.1,0.7,4.2,1.5,6.4,2.4c2.1,0.9,4,2,5.8,3.1c1.7,1.1,3,2.2,3.8,3.3
				c-4.2,4.4-7.7,9.2-10.3,14.4c-2.7,5.2-4,9.8-4,13.6c0,2.3,0.4,4.3,1.3,6.1c0.9,1.8,2.4,3.4,4.5,4.9c8.1-3.1,16-8.7,23.7-17
				c7.7-8.3,14.5-18.6,20.5-30.9c3.6-7.3,6.8-15.6,9.7-25.1c2.9-9.4,5.4-18.9,7.5-28.3c2.1-9.5,3.6-18.6,4.8-27.2
				c1.1-8.7,1.7-16,1.7-22c0-0.9,0-2.2-0.1-3.9c-0.1-1.7-0.1-3.4-0.2-5.2c-0.1-1.8-0.2-3.4-0.3-4.9
				C545.6,63.9,545.6,62.9,545.6,62.4z"/>
			<path class="st1" d="M640.2,127c-0.5,8.2-2,15.3-4.4,21.2c-2.4,5.9-5.8,11.1-10.2,15.5c-4.4,4.4-9.8,8.5-16.2,12c-6.4,3.6-13.8,7-22.3,10.3
				c0,0.8,0,1.6-0.1,2.5c-0.1,0.9-0.1,1.8-0.1,2.7c0,1.7,0.1,3.5,0.4,5.4c0.3,1.9,0.7,3.6,1.4,5.2c0.7,1.6,1.6,2.9,2.8,3.9
				c1.2,1,2.7,1.5,4.6,1.5c3.6,0,7.1-0.8,10.5-2.4c3.4-1.6,6.7-3.5,9.8-5.9c3.1-2.3,6-4.8,8.8-7.6c2.7-2.7,5.1-5.2,7.3-7.5
				c1.3,1.2,2.5,2.3,3.4,3.4c-6,8-12.5,14.6-19.6,19.8c-7.1,5.2-13.8,8.6-20.2,10c-9.1-1.1-16.3-4.4-21.4-10
				c-5.1-5.6-7.7-12.4-7.7-20.4c0-5.4,0.8-11,2.3-16.6c1.5-5.6,3.6-11.1,6.4-16.3c2.7-5.2,5.9-10.2,9.5-14.8
				c3.6-4.6,7.6-8.7,11.7-12.1c4.2-3.4,8.5-6.2,12.9-8.2c4.4-2,8.9-3,13.2-3C629.2,116.5,634.9,120.2,640.2,127z M626.5,133.6
				c-3.6,0.5-7.3,2-11.1,4.4c-3.8,2.4-7.5,5.6-10.8,9.5c-3.4,4-6.5,8.6-9.2,13.9c-2.8,5.3-5,11-6.6,17.1
				c10.6-5.3,19.4-11.8,26.5-19.6C622.2,151.2,626,142.7,626.5,133.6z"/>
			<path class="st1" d="M649.2,196.6c0-5.8,1.4-14,4.2-24.6c2.8-10.5,6.7-22.8,11.7-36.9c8.2-22.4,15.9-41.1,23.2-56
				c7.2-14.9,14.3-26.6,21.2-34.9c1.6,0.3,3.5,0.9,5.9,2c2.3,1.1,4.6,2.2,6.9,3.5c2.3,1.3,4.3,2.6,6.1,3.9c1.8,1.3,2.9,2.4,3.5,3.2
				c-10.3,12.2-19.4,25.3-27.2,39.4c-7.8,14.1-15,30.2-21.5,48.3c-5.6,15.6-9.8,29.7-12.7,42.3c-2.9,12.5-4.4,23-4.4,31.3
				c0,2.3,0,3.6,0,4.2c0,0.5,0.1,1.1,0.2,1.6c-1.9-0.3-3.4-0.7-4.8-1.4c-1.3-0.7-2.2-1.5-2.6-2.4c-0.3-0.7-1-1.6-2.2-2.9
				c-1.2-1.3-2.3-2.2-3.2-2.9c-1.2-0.8-2.2-2.9-3-6.3C649.6,204.7,649.2,200.9,649.2,196.6z"/>
			<path class="st1" d="M696.3,198.2c0-1.2,0.1-2.7,0.3-4.6c0.2-1.9,0.6-4.2,1.1-7.2c0.5-2.9,1.2-6.5,2.1-10.6c0.9-4.2,1.9-9.2,3.1-15
				c0.3-1.2,0.8-3.2,1.6-6.2c0.8-2.9,1.9-6.1,3.3-9.4c1.4-3.4,3.1-6.6,5.3-9.5c2.1-3,4.7-5.2,7.8-6.7c2.3,0.3,5.3,1.5,9,3.7
				c3.8,2.2,7,5.2,9.6,9c-5.8,6.9-10.2,14-13.2,21.3c-3,7.3-5.8,15.2-8.5,23.9c-1.5,4.6-2.8,8.6-3.9,11.9c-1.1,3.3-1.7,6.6-1.7,9.7
				c0,2.4,0,4.1-0.1,5.2c-0.1,1.1-0.4,1.6-1.1,1.6c-0.4,0-1.4-0.3-3-1c-1.6-0.7-3.2-1.7-5-3.1c-1.7-1.4-3.3-3.1-4.7-5.3
				C697,203.8,696.3,201.3,696.3,198.2z M764.5,74.1c1.3,0.8,2.7,2.1,4.1,3.9c1.4,1.8,2.7,3.8,3.8,6c1.1,2.2,2,4.4,2.7,6.7
				c0.7,2.3,1,4.3,1,6.2c-5,3.4-9.4,6.3-13.2,8.6c-3.8,2.3-7.2,4.1-10.1,5.5c-3,1.4-5.6,2.4-7.9,3c-2.3,0.6-4.4,0.9-6.6,0.9
				c-4.2,0-7.9-1.3-10.9-3.8c2.9-1.1,6-2.7,9.1-5c3.2-2.3,6.4-5,9.6-8.2c3.2-3.2,6.4-6.8,9.5-10.7C758.8,83.1,761.8,78.8,764.5,74.1
				z"/>
			<path class="st1" d="M776.1,112.9c3.4,1.1,6.7,3.4,9.7,7.1c3,3.6,5.3,7.7,6.8,12c-1.5,3.6-3.7,7.9-6.8,12.9c-3.1,5-6.1,10.2-9.1,15.4
				c-3.1,5.2-5.8,10.2-8.3,14.9c-2.5,4.7-3.9,8.6-4.3,11.6c2.1-2.3,4.5-4.9,7.1-7.9c2.6-3,5.1-6,7.6-8.9c2.5-3,4.7-5.7,6.9-8.2
				c2.1-2.5,3.8-4.3,5-5.5c2.5-2.7,5.5-5.7,8.9-9.2c3.4-3.5,7.1-6.8,10.8-9.9c3.8-3.1,7.6-5.8,11.4-8c3.8-2.2,7.4-3.3,10.5-3.3
				c3.4,0,6.3,1.2,8.7,3.5c2.3,2.3,4.1,4.7,5.5,7.3c0,0.3-0.5,0.6-1.5,1.1c-1,0.5-2.4,1.8-4.3,3.9c-1.9,2.4-3.9,5.7-6.3,9.8
				c-2.3,4.2-4.6,8.7-6.8,13.5c-2.2,4.8-4,9.8-5.5,14.8c-1.5,5-2.2,9.6-2.2,13.7c0,3.3,0.4,5.4,1.3,6.4c0.9,0.9,2.1,1.4,3.7,1.4
				c1.5,0,3-0.3,4.6-1c1.6-0.7,2.9-1,3.8-1c0.5,0.3,1,0.8,1.3,1.7c0.3,0.9,0.5,1.6,0.5,2.3c-1.1,0.9-2.3,1.9-3.8,2.8
				c-1.5,0.9-3,1.8-4.6,2.6c-1.6,0.8-3.2,1.5-4.7,2c-1.5,0.5-2.9,0.8-4.1,0.8c-3.8,0-7-0.6-9.4-1.7c-2.5-1.1-4.4-2.6-5.8-4.5
				c-1.4-1.9-2.4-4.1-2.9-6.7c-0.5-2.6-0.8-5.3-0.8-8.3c0-1.6,0.1-3.4,0.4-5.4c0.3-2,0.8-4.3,1.6-7.1c0.8-2.7,1.9-6,3.4-9.7
				c1.5-3.8,3.3-8.3,5.6-13.6c-0.3,0-2.1,0.9-5.4,2.8c-3.3,1.9-6.9,4.7-10.7,8.6c-6.2,6-11.8,11.9-16.8,17.7
				c-5,5.8-10,12.3-15.2,19.5c-2.9,4.1-5.5,7.6-7.7,10.4c-2.2,2.9-4.1,4.7-5.7,5.7c-2.8-1.6-4.8-3.8-6.2-6.7c-1.3-2.9-2.3-5.8-3-8.8
				c0-2.5,0.4-5.7,1.1-9.5c0.7-3.8,1.7-8.1,3-12.8c1.3-4.7,2.8-9.6,4.7-14.8c1.9-5.2,3.9-10.3,6.2-15.5c5-11.7,9.6-20.8,13.8-27.4
				C772.4,117,775,113.4,776.1,112.9z"/>
			<path class="st1" d="M851.7,190.4c0-4.8,1.2-11.4,3.7-19.9c2.5-8.5,5.7-17.8,9.6-27.8c4-10.1,8.5-20.5,13.5-31.2c5-10.7,10.1-20.7,15.2-30
				c5.1-9.3,10-17.3,14.7-24.1c4.7-6.8,8.7-11.3,12-13.7c1.9,0.1,3.9,0.9,6.1,2.4c2.2,1.5,4.2,3.2,6.1,5.3c1.9,2.1,3.4,4.2,4.7,6.5
				c1.3,2.3,1.9,4.3,1.9,6.2c-6,4.8-12,10.9-18.2,18.4c-6.2,7.5-12,15.7-17.6,24.7c-5.6,8.9-10.7,18.4-15.4,28.4
				c-4.7,10-8.7,19.9-11.8,29.5c4.2-7.3,8.7-13.9,13.3-19.9c4.6-6,9.3-11.1,13.9-15.3c4.6-4.3,9.2-7.5,13.6-9.9
				c4.4-2.3,8.7-3.5,12.6-3.5c5.8,4.2,8.8,9.9,8.8,16.9c0,4.2-0.9,8.5-2.6,12.8c-1.7,4.3-4,8.3-6.9,11.9c-2.9,3.6-6.1,6.8-9.7,9.3
				c-3.6,2.6-7.5,4.3-11.4,5.1c1.3,4.6,3,9.3,5.1,14.1c2.1,4.8,4.5,9.4,7.4,13.9c2.9,4.5,6.1,8.7,9.7,12.5c3.6,3.8,7.8,7.1,12.4,9.7
				c-0.7,1.3-1.7,2.7-3,4c-1.3,1.3-2.9,2.5-4.8,3.5c-1.9,1-3.9,1.8-6.1,2.4s-4.3,0.9-6.5,0.9c-3.6,0-6.9-1.8-10-5.4
				c-3.1-3.6-5.9-8.8-8.5-15.5c-2-5.4-3.9-11.9-5.8-19.5c-1.9-7.6-3.5-15.4-5-23.7c1.9-1.2,4.2-2.9,7-5.3c2.8-2.3,5.7-5,8.8-8
				c11.7-11.2,17.5-21,17.5-29.2c0-1.1-0.7-1.6-2.2-1.6c-2.7,0-5.8,1.2-9.3,3.6c-3.6,2.4-7.4,5.7-11.4,10c-4,4.2-8.2,9.2-12.3,14.9
				c-4.2,5.7-8.2,11.9-12,18.5c-1.6,2.7-3.1,5.7-4.4,9.2c-1.3,3.4-2.5,7-3.5,10.6c-1,3.7-1.8,7.3-2.3,10.9c-0.5,3.6-0.8,6.9-0.8,10
				c0,1.9,0.2,3.4,0.6,4.6c-4.1-0.4-6.6-1.5-7.6-3.2c-1.1-1.6-2-2.9-2.7-3.9c-0.7-1-1.5-1.8-2.3-2.5c-1.2-0.9-2.2-2.9-3-6
				C852,198.8,851.7,195,851.7,190.4z"/>
			<path class="st1" d="M972.6,216.3c-7.6-0.8-13.6-4.1-18.1-9.9c-4.5-5.8-6.8-13.3-6.8-22.3c0-5.3,0.8-10.8,2.4-16.5c1.6-5.7,3.8-11.2,6.8-16.6
				c2.9-5.4,6.4-10.4,10.3-15.2c4-4.8,8.3-8.9,12.9-12.3c7.3-5.4,14.1-8.2,20.5-8.2c4.2,2.3,8.4,7,12.5,14.1c0.7,0,1.3,0,1.8-0.1
				c0.5-0.1,1.1-0.1,1.8-0.1c7,0,10.5,6.2,10.5,18.7c0,8.4-1.4,16.3-4.1,23.8c-2.7,7.5-6.5,14.3-11.3,20.4
				c-4.8,6.1-10.6,11.2-17.3,15.4C987.9,211.6,980.5,214.6,972.6,216.3z M982.7,153.7c-2.3,3.1-4.4,6.4-6.4,9.9
				c-2,3.6-3.7,7.2-5.2,10.8c-1.5,3.6-2.6,7.2-3.4,10.5c-0.8,3.4-1.2,6.4-1.2,9c0,3.2,0.5,6.2,1.6,9.1c1.1,2.9,2.3,4.6,3.6,5
				c6-1.3,11.4-3.8,16.4-7.5c5-3.6,9.3-8.2,12.9-13.6c3.6-5.4,6.5-11.6,8.6-18.5c2.1-6.9,3.1-14.3,3.1-22.1c0-3.4-0.2-6.2-0.6-8.2
				c-0.4-2-1.1-3.7-2-5.2c-5.8,1.7-11,4.5-15.6,8.4C990,145.4,986,149.4,982.7,153.7z"/>
			<path class="st1" d="M1046.4,138.9c0-2.4,0.2-4.6,0.5-6.8c0.3-2.1,1-3.9,2.1-5.5c1.1-1.5,2.5-2.7,4.4-3.6c1.9-0.9,4.3-1.3,7.4-1.3
				c1.9,0,3.9,0.2,6.3,0.6c2.3,0.4,4,1.1,5.1,2.2c-0.5,2.3-1,4.2-1.3,6c-0.3,1.7-0.6,3.6-0.8,5.7c-0.2,2.1-0.4,4.5-0.5,7.4
				c-0.1,2.9-0.3,6.5-0.4,11c-0.3,9-0.7,17.1-1.3,24.2c-0.6,7.1-2,14.2-4.1,21.2c0,0.5,0.2,0.8,0.6,0.8c2-1.5,4.2-3.6,6.8-6.4
				c2.5-2.8,5.2-5.9,8-9.4c2.8-3.5,5.6-7.3,8.4-11.2c2.8-4,5.4-7.9,7.8-11.7c3.2-5.6,6.7-12.5,10.5-20.9c3.8-8.4,7-17.3,9.5-26.8
				c0.8,0,1.8,0.2,3.1,0.5c1.3,0.3,2.5,0.7,3.8,1.2c1.3,0.5,2.4,1,3.4,1.5c1,0.5,1.7,1,2.1,1.4c-0.3,5.7-1.6,11.5-4.1,17.5
				c-2.5,6-5.4,11.7-8.8,17.3c-3.4,5.6-7.1,10.8-10.9,15.7c-3.8,4.9-7.4,9.1-10.5,12.7c-6.4,7.4-12.8,14.1-19.2,19.9
				c-6.4,5.8-14.1,11.5-23,16.9c-3.4-1.3-6.2-3.1-8.2-5.3s-3-4.5-3-6.9c0-1.6,0.4-3.4,1.1-5.5c0.7-2.1,1.6-4.7,2.5-8
				c0.9-3.2,1.8-7.3,2.5-12.2c0.7-4.9,1.1-11.1,1.1-18.7c0-4.4-0.1-8.8-0.3-13.2C1046.5,144.7,1046.4,141.3,1046.4,138.9z"/>
			<path class="st1" d="M1193.1,129c1.3,0,2.9,0.2,4.7,0.7c1.8,0.5,3.4,1.1,4.9,1.8c1.5,0.7,2.7,1.5,3.7,2.3c1,0.8,1.5,1.5,1.5,2.2
				c-2.7,5.6-5.1,11.2-7.4,16.8c-2.3,5.6-4.2,11-5.8,16.2c-1.6,5.2-2.8,10-3.7,14.5c-0.9,4.5-1.3,8.4-1.3,11.7
				c0,3.7,0.4,6.8,1.2,9.2c0.8,2.5,2.1,4.2,4,5.3c-1.6,1.1-3.6,1.9-6.2,2.6c-2.5,0.7-4.8,1-6.8,1c-7.2,0-10.7-4.9-10.7-14.7
				c0-7.6,2.5-17.9,7.6-31c-2.7,6.1-5.7,11.8-9.1,17.1c-3.4,5.3-7,10.1-10.5,14.2c-3.6,4.1-7.2,7.4-10.8,10c-3.6,2.6-7,4.1-10,4.7
				c-4.9,0-8.9-2.2-11.9-6.7c-3.1-4.5-4.6-10.2-4.6-17.1c0-7.5,1.6-15.3,4.8-23.6s7.3-15.9,12.2-23c5-7.1,10.4-12.9,16.2-17.7
				c5.8-4.7,11.5-7.1,16.9-7.1c1.3,0.4,2.8,1.2,4.5,2.4c1.7,1.2,3.2,2.6,4.8,4.2c1.5,1.6,2.8,3.2,3.9,4.9c1.1,1.7,1.7,3.1,1.8,4.3
				c-5.3,0.8-10.8,3.4-16.4,7.7c-5.6,4.4-10.7,9.6-15.3,15.8c-4.6,6.2-8.3,12.7-11.2,19.7c-2.9,7-4.4,13.6-4.4,19.6
				c0,2.5,0.9,4.1,2.8,4.8c3.8-0.8,8.3-4.1,13.3-9.8c5-5.8,11.1-14.7,18.3-26.7c1.3-2.4,2.8-5,4.5-8c1.7-2.9,3.3-6,5.1-9.1
				c1.7-3.2,3.4-6.4,5.1-9.6C1190.1,135.2,1191.7,132.1,1193.1,129z"/>
			<path class="st1" d="M1216.2,64.4c1.3,0.8,2.7,2.1,4.1,3.9c1.4,1.8,2.7,3.8,3.8,6c1.1,2.2,2,4.4,2.7,6.7c0.7,2.3,1,4.3,1,6.2
				c-5,3.4-9.4,6.3-13.2,8.6c-3.8,2.3-7.2,4.1-10.1,5.5c-3,1.4-5.6,2.4-7.9,3c-2.3,0.6-4.4,0.9-6.6,0.9c-4.2,0-7.9-1.3-10.9-3.8
				c2.9-1.1,6-2.7,9.1-5c3.2-2.3,6.4-5,9.6-8.2c3.2-3.2,6.4-6.8,9.5-10.7C1210.5,73.3,1213.4,69,1216.2,64.4z"/>
		</g>
		<g>
			<path class="st2" d="M926.2,295c3.5,3.5,5.3,8.7,5.3,15.6v27.7h-8.7v-26.7c0-4.7-1.1-8.2-3.2-10.5c-2.1-2.4-5.2-3.5-9.2-3.5
				c-4.4,0-7.9,1.4-10.5,4.1c-2.6,2.8-3.9,6.7-3.9,11.8v24.8h-8.7v-26.7c0-4.7-1.1-8.2-3.2-10.5c-2.1-2.4-5.2-3.5-9.2-3.5
				c-4.4,0-7.9,1.4-10.5,4.1c-2.6,2.8-3.9,6.7-3.9,11.8v24.8h-8.7v-48.1h8.3v7.2c1.8-2.5,4.1-4.4,6.9-5.7c2.8-1.3,6.1-2,9.7-2
				c3.7,0,7.1,0.8,10,2.3c2.9,1.5,5.1,3.7,6.7,6.6c1.8-2.8,4.3-5,7.6-6.5c3.2-1.6,6.9-2.4,10.9-2.4
				C917.9,289.8,922.6,291.5,926.2,295z"/>
			<path class="st2" d="M993.2,290.2v48.1h-8.3v-7.6c-1.9,2.7-4.4,4.7-7.3,6.1c-3,1.4-6.2,2.1-9.8,2.1c-4.7,0-8.8-1-12.5-3.1
				c-3.7-2.1-6.6-4.9-8.7-8.7c-2.1-3.7-3.1-8-3.1-12.8c0-4.8,1-9.1,3.1-12.8c2.1-3.7,5-6.6,8.7-8.6c3.7-2.1,7.9-3.1,12.5-3.1
				c3.4,0,6.6,0.7,9.5,2c2.9,1.3,5.3,3.2,7.3,5.8v-7.3H993.2z M976.7,329.1c2.5-1.4,4.4-3.4,5.8-6c1.4-2.6,2.1-5.5,2.1-8.8
				c0-3.3-0.7-6.3-2.1-8.8c-1.4-2.6-3.3-4.6-5.8-5.9c-2.5-1.4-5.2-2.1-8.3-2.1c-3.1,0-5.9,0.7-8.3,2.1c-2.4,1.4-4.4,3.4-5.8,5.9
				c-1.4,2.6-2.1,5.5-2.1,8.8c0,3.3,0.7,6.3,2.1,8.8c1.4,2.6,3.4,4.6,5.8,6s5.2,2.1,8.3,2.1C971.4,331.2,974.2,330.5,976.7,329.1z"
				/>
			<path class="st2" d="M1012.2,337.3c-3.6-1.1-6.5-2.4-8.5-4l3.6-6.9c2.1,1.5,4.7,2.7,7.7,3.6c3,0.9,6.1,1.4,9.2,1.4
				c7.6,0,11.4-2.2,11.4-6.5c0-1.5-0.5-2.6-1.5-3.4c-1-0.8-2.3-1.5-3.9-1.9c-1.5-0.4-3.7-0.8-6.6-1.3c-3.9-0.6-7-1.3-9.5-2.1
				c-2.4-0.8-4.6-2.1-6.3-4c-1.8-1.9-2.6-4.5-2.6-7.9c0-4.4,1.8-7.8,5.4-10.5c3.6-2.6,8.5-3.9,14.6-3.9c3.2,0,6.4,0.4,9.6,1.2
				c3.2,0.8,5.8,1.8,7.9,3.2l-3.7,6.9c-3.9-2.5-8.6-3.8-13.9-3.8c-3.7,0-6.5,0.6-8.4,1.8c-1.9,1.2-2.9,2.8-2.9,4.8
				c0,1.6,0.5,2.8,1.6,3.7c1.1,0.9,2.4,1.6,4,2c1.6,0.4,3.9,0.9,6.8,1.5c3.9,0.7,7,1.4,9.4,2.1c2.4,0.8,4.4,2,6.1,3.9
				c1.7,1.8,2.5,4.4,2.5,7.6c0,4.4-1.9,7.8-5.6,10.4c-3.7,2.6-8.8,3.9-15.2,3.9C1019.6,338.9,1015.8,338.3,1012.2,337.3z"/>
			<path class="st2" d="M1100.5,290.2v48.1h-8.3v-7.6c-1.9,2.7-4.4,4.7-7.3,6.1c-3,1.4-6.2,2.1-9.8,2.1c-4.7,0-8.8-1-12.5-3.1
				c-3.7-2.1-6.6-4.9-8.7-8.7c-2.1-3.7-3.1-8-3.1-12.8c0-4.8,1-9.1,3.1-12.8c2.1-3.7,5-6.6,8.7-8.6c3.7-2.1,7.9-3.1,12.5-3.1
				c3.4,0,6.6,0.7,9.5,2c2.9,1.3,5.3,3.2,7.3,5.8v-7.3H1100.5z M1084,329.1c2.5-1.4,4.4-3.4,5.8-6c1.4-2.6,2.1-5.5,2.1-8.8
				c0-3.3-0.7-6.3-2.1-8.8c-1.4-2.6-3.3-4.6-5.8-5.9c-2.5-1.4-5.2-2.1-8.3-2.1c-3.1,0-5.9,0.7-8.3,2.1c-2.4,1.4-4.4,3.4-5.8,5.9
				c-1.4,2.6-2.1,5.5-2.1,8.8c0,3.3,0.7,6.3,2.1,8.8c1.4,2.6,3.4,4.6,5.8,6c2.4,1.4,5.2,2.1,8.3,2.1
				C1078.8,331.2,1081.5,330.5,1084,329.1z M1082.8,271.4h11.1l-15.2,11.8h-8.2L1082.8,271.4z"/>
			<path class="st2" d="M1153.1,331.1v7.2h-40.3v-5.6l12.2-15.2h-8.7v-6.9h14.3l10.5-13.2h-27.9v-7.2h39v5.7l-11.9,14.7h9v6.9H1135
				l-11,13.6H1153.1z M1149,271.4l-12.1,11.8h-8.3l-12.1-11.8h7.9l8.3,6.9l8.3-6.9H1149z"/>
			<path class="st2" d="M1200.1,325.4l4.7,5.6c-2.1,2.5-4.8,4.5-8,5.8c-3.2,1.3-6.9,2-10.8,2c-5.1,0-9.6-1-13.5-3.1
				c-3.9-2.1-7-5-9.1-8.8c-2.1-3.7-3.2-8-3.2-12.7c0-4.7,1-8.9,3.1-12.6c2.1-3.7,5-6.7,8.6-8.8c3.7-2.1,7.8-3.1,12.4-3.1
				c4.4,0,8.3,1,11.9,2.9c3.6,2,6.4,4.7,8.5,8.3c2.1,3.6,3.2,7.7,3.3,12.3l-38.2,7.4c1.2,3.3,3.2,5.9,6.1,7.7
				c2.9,1.8,6.3,2.7,10.4,2.7C1191.9,331.2,1196.5,329.3,1200.1,325.4z M1176.1,299.2c-2.4,1.4-4.3,3.3-5.6,5.9
				c-1.3,2.5-2,5.4-2,8.8v0.9l30.8-5.8c-0.8-3.5-2.5-6.4-5.3-8.5c-2.7-2.2-6-3.3-9.8-3.3C1181.1,297.1,1178.4,297.8,1176.1,299.2z"
				/>
		</g>
	</g>
	<g>
		<circle class="st0" cx="211.8" cy="197.7" r="184.8"/>
		<g>
			<path class="st1" d="M375.2,176.1c-0.2-2.6-0.4-5.2-0.6-7.8c-1.6-15.1-5-29.9-10.1-44.1c-17-47.2-51.4-84.9-96.8-106.3
				c-45.4-21.3-96.4-23.7-143.6-6.7C67.2,31.7,23.4,78.9,7,137.5c-0.6,2.3-1.3,4.6-1.8,6.9c-8.6,35.7-6.5,72.7,5.9,107.2
				c26.8,74.3,97.8,124.1,176.9,124.1c21.6,0,43-3.7,63.5-11.1C329.5,336.5,380.4,259,375.2,176.1z M127.7,21
				c19.5-7,39.8-10.6,60.3-10.6c26.1,0,51.4,5.7,75.4,16.9c42.9,20.2,75.3,55.8,91.4,100.4c5.1,14.2,8.4,29,9.8,44.1
				c-5.8,3.8-11.6,7.9-17.1,11.7c-26.6,18.6-56.8,39.6-93.9,43.7c0.1-0.4,0.2-0.9,0.3-1.3c1.4-8.4-3-12.1-8.9-15.9
				c-6.1-4-15.9-5.4-23-5.4c-2.5,0-4.7,0.2-6.3,0.5c-10.6,2-13.2,8.6-13.8,12.3c-0.2,1.1-0.2,2.2-0.2,3.3c-5.9-2-12.2-4.4-19.2-7.3
				c1.6-1.4,2.8-3.2,3.7-5.1c3.5-7.8,0.2-12.4-4.5-17.7c-6.6-7.3-20.9-11.9-27-12.3c-10.7-0.9-15,4.9-16.6,8.3
				c-0.8,1.7-1.2,3.6-1.4,5.5c-3.5-1.7-7-3.5-10.5-5.2c1.9-1.5,3.5-3.5,4.6-5.9c3.5-7.8,0.2-12.4-4.5-17.7
				c-6.6-7.3-20.9-11.9-27.1-12.3c-10.3-0.7-14.7,4.1-16.6,8.3c-0.8,1.7-1.2,3.5-1.3,5.2c-2-1-4-1.9-6-2.9c1.4-1.4,2.5-3,3.3-4.8
				c3.5-7.8,0.2-12.4-4.5-17.7c-6.6-7.3-20.9-11.9-27-12.3c-10.3-0.7-14.7,4.1-16.6,8.3c-1,2.1-1.4,4.4-1.4,6.7
				c-4-1.3-7.8-2.5-11.4-3.5C33.5,84,74.5,40.2,127.7,21z M243.4,224.1c-0.2,1.2-0.8,2.4-1.7,3.1c-0.5,0.4-1.2,0.8-2.1,0.7
				l-25.5-4.2c-0.7-0.1-1.3-0.6-1.7-1.3c-0.6-1-0.8-2.2-0.6-3.4c0.1-0.8,0.5-2.8,5.5-3.8c1-0.2,2.4-0.3,4.1-0.3
				c5.9,0,13.9,1.3,17.6,3.7C243.8,221.7,243.8,221.9,243.4,224.1z M176.5,203.9c-0.5,1.2-1.4,2.1-2.4,2.5c-0.8,0.4-1.5,0.4-2.1,0.1
				L148.4,196c-0.7-0.3-1.1-1-1.4-1.9c-0.3-1-0.1-2.2,0.3-3.3h0c0.3-0.7,1-2.3,5-2.3c0.4,0,0.8,0,1.3,0.1c4.4,0.3,16,4.3,20.1,8.9
				C177.5,201.7,177.5,201.9,176.5,203.9z M121.1,176.6c-0.5,1.1-1.4,2.1-2.4,2.5c-0.8,0.4-1.5,0.4-2.1,0.1L93,168.7
				c-0.7-0.3-1.1-1-1.4-1.9c-0.3-1-0.1-2.2,0.3-3.3c0.3-0.7,1-2.3,5-2.3c0.4,0,0.8,0,1.3,0.1c4.4,0.3,16,4.3,20.1,8.9
				C122.1,174.4,122,174.6,121.1,176.6z M69,152.5c-0.5,1.1-1.4,2.1-2.4,2.5c-0.8,0.4-1.5,0.4-2.1,0.1l-23.6-10.6
				c-1.5-0.7-2-3.1-1-5.2c0.3-0.7,1-2.3,5-2.3c0.4,0,0.8,0,1.3,0.1c4.4,0.3,16,4.3,20.1,8.9C70,150.3,69.9,150.5,69,152.5z
				 M241.1,350.5c-21.7,15.4-51.4,11.3-52.6,11.1l-0.8-0.1l-0.8,0.1c-1.3,0.2-30.9,4.3-52.6-11.1c-16.1-11.4-23.5-30.8-26.4-40.4
				c9.9-0.5,30.8,0.2,46.8,11.6c2.5,1.8,4.9,3.8,7.2,6.2l11.8,11.9l-2.9-16.5c-0.6-3.3-0.9-6.4-0.9-9.5c0-19.7,11.5-37,17.7-44.9
				c6.1,7.8,17.7,25.1,17.7,44.9c0,3.1-0.3,6.3-0.9,9.6l-3,16.6l11.8-12c2.3-2.4,4.8-4.5,7.3-6.3c16.1-11.4,36.9-12,46.8-11.6
				C264.7,319.7,257.3,339.1,241.1,350.5z M255.9,351.6c18.1-18.4,23.1-43.9,23.3-45.1l1-5.3l-5.3-0.8c-1.4-0.2-34-4.9-59.1,12.1
				c-0.7-30.3-23.3-54.1-24.3-55.2l-3.7-3.9l-3.7,3.9c-1,1-23.6,24.8-24.3,55.1c-25.1-16.9-57.6-12.2-59-12l-5.3,0.8l1,5.3
				c0.2,1.2,5.2,26.8,23.4,45.2c-2.5-1-4.9-2.1-7.4-3.3C69.4,328.2,36.9,292.5,20.9,248c-11.5-32-13.6-66.4-6-99.5
				c11.7,3.1,23.2,7.3,34.4,12.5c22.3,10.2,43.1,20.7,63.3,30.8c46.9,23.5,87.4,43.8,118,46.2c2.8,0.2,5.5,0.3,8.3,0.3
				c0.4,0,0.8,0.1,1.4,0l0.6,0c46.2,0,81.4-24.6,112.4-46.3c4-2.8,8-5.6,11.8-8.2C366.8,257.5,323.5,323.5,255.9,351.6z"/>
		</g>
	</g>
</g>
</svg>
